<?xml version="1.0" encoding="utf-8"?>
<!-- Generator: Adobe Illustrator 19.2.1, SVG Export Plug-In . SVG Version: 6.00 Build 0)  -->
<svg version="1.1" id="layer" xmlns="http://www.w3.org/2000/svg" xmlns:xlink="http://www.w3.org/1999/xlink" x="0px" y="0px"
	 viewBox="0 0 652 652" style="enable-background:new 0 0 652 652;" xml:space="preserve">
<style type="text/css">
	.st0{fill:#305524;}
</style>
<path class="st0" d="M187,373.6c6.5,0.1,12.9-1.9,18.1-5.9c0.3-0.2,0.7-0.2,0.9,0.1c0.1,0.1,0.1,0.3,0.1,0.4v3
	c0,0.4,0.3,0.7,0.7,0.7H232c0.4,0,0.7-0.3,0.7-0.7v-75.6c0-0.4-0.3-0.7-0.7-0.7h-25.1c-0.4,0-0.7,0.3-0.7,0.7V339
	c0,9.7-3.4,12.3-8.8,12.3c-5.4,0-8.8-2.6-8.8-12.6v-43.1c0-0.4-0.3-0.7-0.7-0.7h-25.2c-0.4,0-0.7,0.3-0.7,0.7v46.4
	C162,362.3,170.1,373.7,187,373.6 M453.1,341.1c0-0.3-0.2-0.5-0.4-0.6c-3.4-1.4-7.2-2.1-10.9-2c-5.4,0-8.2,2.9-8.2,8.2
	c0,4.8,2.5,8.4,8.2,8.4c4,0,7.8-1.3,11-3.6c0.2-0.1,0.3-0.3,0.3-0.5V341.1z M478,371.3c0,0.4-0.3,0.7-0.7,0.7h-23.6
	c-0.4,0-0.7-0.3-0.7-0.7v-3.1c0-0.4-0.3-0.7-0.7-0.7c-0.1,0-0.3,0-0.4,0.1c-5.2,3.8-11.3,5.9-17.7,6c-15,0-24.9-9.2-24.9-26.6
	c0-16.6,11.4-25.1,27.7-25.1c5.2-0.1,10.3,0.8,15.1,2.8c0.3,0.1,0.7,0,0.9-0.3c0-0.1,0.1-0.2,0.1-0.3v-2.8c0-6.7-3.7-9-10.9-9
	c-7.3-0.2-14.4,1.6-20.7,5.2c-0.3,0.2-0.8,0.1-0.9-0.3c0,0,0,0,0-0.1l-6.4-16.2c-0.1-0.3,0-0.7,0.3-0.9c10.2-4.7,21.3-7,32.6-6.8
	c21.6,0,30.9,10.7,30.9,28.6L478,371.3 M579.4,293.4c-10.3,0-16.6,3.9-21.9,8.3c-0.3,0.2-0.7,0.2-0.9,0c-4.8-5-10.5-8.2-20.8-8.2
	c-6.2-0.1-12.3,2-17.2,5.9c-0.3,0.2-0.7,0.1-0.9-0.2c-0.1-0.1-0.1-0.3-0.1-0.4v-3c0-0.4-0.3-0.7-0.7-0.7h-25.1
	c-0.4,0-0.7,0.3-0.7,0.7v75.7c0,0.4,0.3,0.7,0.7,0.7l0,0h25c0.4,0,0.7-0.3,0.7-0.7V328c0-9.7,3-12.3,8.5-12.3s8.5,2.6,8.5,12.6v43
	c0,0.4,0.3,0.7,0.7,0.7h25c0.4,0,0.7-0.3,0.7-0.7v0V328c0-9.7,3-12.3,8.5-12.3s8.4,2.6,8.4,12.6v43c0,0.4,0.3,0.7,0.7,0.7l0,0h25.2
	c0.4,0,0.7-0.3,0.7-0.7v-46.4C604.2,304.7,596.6,293.3,579.4,293.4 M373.2,371.3c0,0.4,0.3,0.7,0.7,0.7h25.2c0.4,0,0.7-0.3,0.7-0.7
	v0v-46.3c0-20.2-8.1-31.6-24.9-31.6c-6.6-0.1-13.1,2-18.3,6c-0.3,0.2-0.7,0.2-0.9-0.1c-0.1-0.1-0.1-0.3-0.1-0.4V269
	c0-0.4-0.3-0.7-0.7-0.7c-0.1,0-0.2,0-0.3,0.1l-25,10c-0.3,0.1-0.4,0.4-0.4,0.6v92.3c0,0.4,0.3,0.7,0.7,0.7h25.1
	c0.4,0,0.7-0.3,0.7-0.7v0V328c0-9.7,3.4-12.3,9-12.3c5.6,0,8.8,2.6,8.8,12.6v43L373.2,371.3z M291.2,293.4c-6.6-0.1-13.1,2-18.3,6
	c-0.3,0.2-0.7,0.2-0.9-0.1c-0.1-0.1-0.1-0.3-0.1-0.4v-3.2c0-0.4-0.3-0.7-0.7-0.7l0,0h-25.7v76.3c0,0.4,0.3,0.7,0.7,0.7h25
	c0.4,0,0.7-0.3,0.7-0.7V328c0-9.7,3.4-12.3,8.9-12.3s8.8,2.6,8.8,12.6v43c0,0.4,0.3,0.7,0.7,0.7h25.2c0.4,0,0.7-0.3,0.7-0.7v-46.4
	C316.2,304.7,308.1,293.3,291.2,293.4 M90.5,347c0,0.4,0.3,0.7,0.7,0.7h5.5c17.7,0,24.6-6.7,24.6-27.1c0-18.9-6-26.8-23.8-26.8h-6.4
	c-0.4,0-0.7,0.3-0.7,0.7v52.7 M150.5,320.2c0,38.6-19.1,51.9-55.5,51.9H81.1c-0.2,0-0.4-0.1-0.5-0.2l-21.2-32.7
	c-0.2-0.2-0.1-0.6,0.2-0.7c0.1-0.1,0.2-0.1,0.3-0.1h17.7c0.3,0,0.5-0.2,0.5-0.5c0-0.1,0-0.2-0.1-0.3l-20.2-31.5
	c-0.1-0.3,0-0.6,0.2-0.7c0.1,0,0.1,0,0.2-0.1h17.6c0.3,0,0.5-0.2,0.5-0.5c0-0.1,0-0.2-0.1-0.3L51.3,270c-0.1-0.1-0.2-0.1-0.2,0
	c0,0,0,0.1-0.1,0.1v101.4c0,0.3-0.2,0.6-0.6,0.6c0,0,0,0,0,0H21.8c-0.3,0-0.6-0.3-0.5-0.6c0-0.1,0-0.2,0.1-0.3l20.9-32
	c0.2-0.2,0.1-0.6-0.1-0.8c-0.1-0.1-0.3-0.1-0.4-0.1H24.2c-0.3,0-0.6-0.3-0.5-0.6c0-0.1,0-0.2,0.1-0.3l20.1-31.3
	c0.2-0.3,0.1-0.6-0.2-0.8c-0.1,0-0.2-0.1-0.3-0.1H25.3c-0.2-0.1-0.2-0.2-0.2-0.4c0,0,0,0,0,0l24.9-35.1c0.1-0.2,0.4-0.4,0.7-0.4
	h46.9c32.3,0,52.8,12.2,52.8,50.8 M620,369.3c0.5-1.2,0.5-2.5,0-3.6c-0.2-0.6-0.5-1.1-0.9-1.5c-0.4-0.4-0.9-0.7-1.4-1
	c-0.5-0.2-1.1-0.4-1.7-0.3c-0.6,0-1.2,0.1-1.7,0.3c-0.5,0.2-1,0.6-1.4,1c-0.4,0.4-0.7,0.9-0.9,1.5c-0.5,1.2-0.5,2.5,0,3.6
	c0.2,0.6,0.5,1.1,0.9,1.5c0.8,0.8,1.9,1.3,3.1,1.3c0.6,0,1.2-0.1,1.7-0.3c0.5-0.2,1-0.6,1.4-1C619.4,370.4,619.8,369.9,620,369.3
	 M620.8,365.4c0.6,1.4,0.6,2.9,0,4.2c-0.3,0.6-0.7,1.2-1.2,1.7c-0.5,0.5-1.1,0.9-1.7,1.1c-1.3,0.5-2.8,0.5-4.1,0
	c-0.6-0.3-1.2-0.6-1.7-1.1c-0.5-0.5-0.9-1.1-1.2-1.7c-0.6-1.4-0.6-2.9,0-4.2c0.3-0.6,0.7-1.2,1.2-1.7c0.5-0.5,1.1-0.9,1.7-1.1
	c1.3-0.5,2.8-0.5,4.1,0c0.6,0.3,1.2,0.6,1.7,1.1C620.2,364.2,620.6,364.8,620.8,365.4 M615.8,367.2h0.6c0.2,0,0.4-0.1,0.5-0.1
	c0.2-0.1,0.3-0.2,0.4-0.3c0.1-0.2,0.2-0.4,0.2-0.6c0-0.2,0-0.4-0.1-0.5c-0.1-0.1-0.2-0.2-0.3-0.3c-0.1-0.1-0.3-0.1-0.5-0.1h-0.5
	h-1.2v2L615.8,367.2 M618,367.4c-0.3,0.3-0.7,0.4-1.2,0.5l1.8,2.8h-1l-1.7-2.7h-1v2.7h-0.9v-5.4c0-0.5,0.4-0.8,0.8-0.8h1.5
	c1.5,0,2.2,0.6,2.2,1.8C618.4,366.7,618.3,367.1,618,367.4"/>
</svg>
