<?xml version="1.0" encoding="utf-8"?>
<!-- Generator: Adobe Illustrator 19.2.1, SVG Export Plug-In . SVG Version: 6.00 Build 0)  -->
<svg version="1.1" id="layer" xmlns="http://www.w3.org/2000/svg" xmlns:xlink="http://www.w3.org/1999/xlink" x="0px" y="0px"
	 viewBox="0 0 652 652" style="enable-background:new 0 0 652 652;" xml:space="preserve">
<style type="text/css">
	.st0{fill-rule:evenodd;clip-rule:evenodd;fill:#FFFFFF;stroke:#D4003B;stroke-width:7.9648;}
	.st1{fill-rule:evenodd;clip-rule:evenodd;fill:#D4003B;}
</style>
<path class="st0" d="M302.8,225.6l299.1-0.5L601.6,359c-0.5,43.3-13.4,57.8-50.8,58.1H303"/>
<path class="st0" d="M320.7,417.1L22,417.7l0.2-134.8c0-39,15-57,51.9-57.3h246.5"/>
<path class="st1" d="M613.1,413.7L613.1,413.7c4.9,0,8.9-3.8,8.9-9c0-5-4.1-8.9-8.9-8.9l0,0v1.3l0,0c4.1,0,7.3,3.3,7.3,7.6
	c0,4.3-3.2,7.6-7.3,7.6l0,0V413.7L613.1,413.7z M613.1,405.7v-1.5c1.4,0,2.6-0.2,2.6-1.7c0-1.4-1.2-1.6-2.3-1.6h-0.3v-1.3h0.5
	c2.5,0,3.7,0.9,3.7,3c0,1.9-1.2,2.6-2.8,2.8l3,4.6h-1.7L613.1,405.7z M604.2,404.7c0,5.1,4.1,8.9,9,9v-1.3c-4.2,0-7.3-3.3-7.3-7.6
	c0-4.2,3.2-7.6,7.3-7.6v-1.3C608.2,395.9,604.2,399.7,604.2,404.7L604.2,404.7z M613.1,399.6v1.3h-1.9v3.3h1.7c0,0,0.1,0,0.2,0v1.5
	l-0.1-0.2h-1.7v4.5h-1.6v-10.4H613.1z M467.5,261.2l-18.9,28.2h-12.2l7.5-28.2H467.5z M123.3,372.9H91.2V259.5h31.1
	c15.5,0,27,3,34.5,9c8.8,7.1,13.2,17,13.2,29.6c0,13.8-4.7,24-14.1,30.8c-6.4,4.6-15.6,6.8-27.6,6.8h-5V372.9z M123.3,311.9l1.5,0.1
	c3.9,0,7-1.1,9.3-3.4c2.3-2.3,3.5-5.4,3.5-9.4c0-3.9-1.1-7.1-3.4-9.5c-2.3-2.5-5.1-3.8-8.6-3.8h-2.2V311.9z M207.8,372.9h-30.9
	v-79.4h30.9l-1.6,15.5c4.7-11.6,12.4-17.4,23.2-17.4v33.1c-3.4-1.8-6.2-2.7-8.6-2.7c-4.2,0-7.4,1.4-9.6,4.3c-2.2,2.9-3.4,7-3.4,12.5
	V372.9z M313,334.4c0,11.8-3.6,21.1-10.8,28.1c-7.2,7-16.8,10.4-28.9,10.4c-11.9,0-21.3-3.6-28.3-10.7c-7-7.1-10.4-16.7-10.4-28.8
	c0-12,3.6-21.7,10.7-29c7.1-7.3,16.5-11,28.2-11c12.3,0,22,3.6,29,10.9C309.5,311.7,313,321.7,313,334.4z M282.1,333.4
	c0-2.7-0.2-5.2-0.6-7.3c-0.4-2.2-0.9-4.1-1.7-5.6c-0.7-1.6-1.6-2.8-2.6-3.6c-1-0.9-2.1-1.3-3.4-1.3c-2.5,0-4.5,1.6-6,4.9
	c-1.5,2.8-2.3,7.1-2.3,12.8c0,5.6,0.8,9.9,2.3,12.8c1.5,3.2,3.5,4.9,6,4.9c2.4,0,4.3-1.6,5.9-4.8
	C281.3,342.5,282.1,338.3,282.1,333.4z M351.9,395.8h-30.9V293.5h30.9l-0.6,11.2c1.3-2.3,2.6-4.3,3.9-6c1.3-1.6,2.8-2.9,4.3-3.9
	c1.5-0.9,3.2-1.4,5-1.4c1.8,0,3.7,0,5.9,0c8,0,14.5,3.7,19.6,11c5,7.2,7.5,16.8,7.5,28.8c0,12.2-2.4,21.8-7.2,28.9
	c-4.7,7.1-11.1,10.7-19.3,10.7c-7.5,0-14-4.1-19.6-12.4c0.3,2.5,0.4,4.7,0.5,6.5c0.2,1.9,0.2,4.1,0.2,6.7V395.8z M366.3,332.8
	c0-4.9-0.6-8.7-1.9-11.3c-1.3-2.7-3-4-5.3-4c-4.8,0-7.2,5.2-7.2,15.7c0,10.7,2.3,16,6.9,16c2.3,0,4.1-1.4,5.5-4.3
	C365.6,341.9,366.3,337.9,366.3,332.8z M448.6,346.1l30.2,0.6c-2.1,8.7-6.3,15.3-12.6,19.7c-6.2,4.4-14.4,6.6-24.4,6.6
	c-11.9,0-21.3-3.4-28.1-10.2c-6.7-6.9-10.1-16.3-10.1-28.2c0-12.1,3.6-22,10.9-29.6c7.2-7.7,16.6-11.5,28.1-11.5
	c11.4,0,20.5,3.7,27.2,11.1c6.8,7.5,10.2,17.4,10.2,29.7l-0.2,5h-45.3c0.4,7.6,2.8,11.5,7.2,11.5
	C445.3,350.9,447.6,349.3,448.6,346.1z M449.3,322.8c0-1.1-0.2-2-0.5-2.9c-0.4-0.9-0.9-1.6-1.5-2.3c-0.6-0.6-1.4-1.1-2.3-1.5
	c-0.9-0.4-1.8-0.6-2.9-0.6c-2.1,0-3.9,0.7-5.2,2c-1.3,1.4-2,3.1-2,5.2H449.3z M523.9,372.9H493v-55.5h-8.8v-23.9h8.8v-23.4h30.9
	v23.4h8.8v23.9h-8.8V372.9z"/>
</svg>
