<?xml version="1.0" encoding="utf-8"?>
<!-- Generator: Adobe Illustrator 16.0.3, SVG Export Plug-In . SVG Version: 6.00 Build 0)  -->
<!DOCTYPE svg PUBLIC "-//W3C//DTD SVG 1.1//EN" "http://www.w3.org/Graphics/SVG/1.1/DTD/svg11.dtd">
<svg version="1.1" id="Calque_3" xmlns="http://www.w3.org/2000/svg" xmlns:xlink="http://www.w3.org/1999/xlink" x="0px" y="0px"
	 width="450px" height="240px" viewBox="0 0 450 240" enable-background="new 0 0 450 240" xml:space="preserve">
<g>
	<path fill-rule="evenodd" clip-rule="evenodd" d="M45.032,81.314c1.746,0.365,3.506,0.675,5.236,1.104
		c15.423,3.828,27,16.915,28.917,32.661c2.474,20.301-10.627,38.795-30.72,42.811c-22.694,4.536-42.347-10.903-45.832-31.202
		c-0.142-0.828-0.338-1.646-0.509-2.468c0-2.841,0-5.683,0-8.524c0.08-0.214,0.203-0.423,0.233-0.645
		c2.089-15.731,13.076-28.344,28.369-32.501c1.898-0.517,3.853-0.829,5.781-1.237C39.348,81.314,42.19,81.314,45.032,81.314z
		 M39.174,150.713c16.395,0.986,32.011-11.65,32.424-30.216c0.365-16.424-12.373-30.99-30.358-31.365
		c-16.264-0.34-30.911,12.302-31.292,30.286C9.575,136.912,23.463,150.046,39.174,150.713z"/>
	<path fill-rule="evenodd" clip-rule="evenodd" d="M397.057,124.367c4.864,4.521,9.531,8.86,14.388,13.377
		c-0.563,0.065-0.899,0.139-1.235,0.14c-2.368,0.011-4.736,0.048-7.101-0.024c-0.589-0.018-1.306-0.263-1.73-0.655
		c-4.346-4.003-8.658-8.043-12.94-12.115c-0.633-0.602-1.237-0.879-2.111-0.856c-2.309,0.055-4.619,0.018-7.046,0.018
		c0,4.546,0,8.977,0,13.522c-2.403,0-4.694,0-7.101,0c0-10.999,0-22.046,0-33.267c0.461-0.034,0.956-0.104,1.453-0.104
		c7.336-0.007,14.674-0.027,22.01,0.009c2.264,0.01,4.512,0.284,6.574,1.335c3.028,1.542,4.604,4.045,4.86,7.418
		C407.603,120.056,403.054,123.689,397.057,124.367z M379.309,117.372c0.591,0,1.1,0,1.608,0c4.917,0,9.834,0,14.751,0
		c0.474,0,0.95,0.039,1.417-0.015c1.549-0.175,2.674-1.269,2.823-2.7c0.15-1.427-0.615-2.751-1.915-3.103
		c-0.811-0.219-1.669-0.363-2.506-0.358c-5.143,0.031-10.284,0.111-15.427,0.181c-0.227,0.003-0.452,0.057-0.752,0.097
		C379.309,113.397,379.309,115.272,379.309,117.372z"/>
	<path fill-rule="evenodd" clip-rule="evenodd" d="M116.615,124.642c4.807,4.48,9.481,8.838,14.156,13.194
		c-0.05,0.112-0.101,0.227-0.149,0.339c-2.154,0-4.316-0.11-6.462,0.033c-1.782,0.119-3.09-0.416-4.377-1.673
		c-3.923-3.834-7.964-7.551-11.981-11.289c-0.35-0.326-0.857-0.667-1.3-0.679c-2.505-0.064-5.012-0.03-7.704-0.03
		c0,4.528,0,8.994,0,13.545c-2.438,0-4.693,0-7.072,0c0-11.051,0-22.138,0-33.328c0.495-0.025,0.957-0.07,1.419-0.07
		c7.482-0.004,14.966-0.039,22.448,0.029c1.481,0.013,2.989,0.307,4.433,0.674c3.997,1.016,6.551,4.435,6.627,8.907
		c0.082,4.846-3.007,8.658-7.378,9.793C118.473,124.295,117.652,124.428,116.615,124.642z M98.818,117.605
		c0.422,0.02,0.744,0.049,1.064,0.049c3.827,0.003,7.653,0.002,11.479,0.002c1.606,0,3.214,0.041,4.818-0.014
		c1.877-0.062,3.092-1.182,3.255-2.888c0.145-1.502-0.838-2.668-2.652-3.088c-0.544-0.125-1.114-0.193-1.674-0.195
		c-4.959-0.015-9.92-0.011-14.88-0.006c-0.456,0.001-0.911,0.043-1.411,0.068C98.818,113.574,98.818,115.501,98.818,117.605z"/>
	<path fill-rule="evenodd" clip-rule="evenodd" d="M341.135,103.62c5.452,0.112,10.433,1.46,14.595,5.145
		c8.557,7.574,7.255,21.15-2.617,27.003c-4.427,2.624-9.228,3.503-14.365,3.025c-4.39-0.409-8.366-1.72-11.776-4.534
		c-3.838-3.169-5.865-7.253-6.062-12.255c-0.177-4.542,1.134-8.535,4.206-11.918c3.14-3.458,7.126-5.311,11.665-6.051
		C338.217,103.8,339.684,103.753,341.135,103.62z M341.167,132.19c2.338-0.241,4.746-0.533,6.981-1.659
		c3.756-1.892,5.853-4.988,5.941-9.103c0.08-3.748-1.593-6.823-4.899-8.857c-2.005-1.233-4.183-1.818-6.515-2.05
		c-3.485-0.346-6.734,0.26-9.724,2.091c-6.24,3.821-6.36,12.729-0.66,16.863C334.93,131.386,337.934,131.94,341.167,132.19z"/>
	<path fill-rule="evenodd" clip-rule="evenodd" d="M156.09,139.215c-4.662-0.12-8.974-1.211-12.826-3.851
		c-10.501-7.198-9.642-22.9,1.673-28.836c4.286-2.249,8.812-3.015,13.639-2.555c4.338,0.413,8.285,1.706,11.661,4.465
		c3.889,3.179,5.913,7.281,6.133,12.37c0.399,9.308-6.351,15.832-14.427,17.616C160.026,138.848,158.042,138.959,156.09,139.215z
		 M156.351,132.15c2.922,0.157,5.794-0.589,8.356-2.36c5.452-3.771,5.822-11.288,1.394-15.607
		c-4.821-4.701-14.824-4.82-19.711-0.195c-4.231,4.004-4.288,10.721-0.077,14.742C149.061,131.356,152.443,132.271,156.351,132.15z"
		/>
	<path fill-rule="evenodd" clip-rule="evenodd" d="M286.027,124.522c0,4.543,0,8.934,0,13.441c-2.384,0-4.669,0-7.062,0
		c0-11.114,0-22.156,0-33.295c0.419-0.028,0.829-0.08,1.239-0.08c7.95-0.005,15.903-0.021,23.854,0.008
		c2.206,0.009,4.274,0.656,6.115,1.877c1.84,1.221,3.038,2.937,3.501,5.113c0.814,3.837,0.211,7.313-2.795,10.075
		c-1.79,1.645-3.95,2.538-6.39,2.579c-5.722,0.094-11.442,0.136-17.164,0.203C286.956,124.449,286.583,124.488,286.027,124.522z
		 M286.085,117.467c4.783,0,9.417,0.007,14.052-0.004c1.323-0.003,2.65-0.004,3.968-0.108c0.97-0.078,1.807-0.492,2.284-1.438
		c1.111-2.197-0.216-4.435-2.698-4.444c-5.631-0.024-11.263-0.008-16.894-0.003c-0.224,0-0.445,0.053-0.712,0.087
		C286.085,113.509,286.085,115.382,286.085,117.467z"/>
	<path fill-rule="evenodd" clip-rule="evenodd" d="M223.142,112.414c-2.105,1.454-3.955,2.73-5.997,4.141
		c-0.204-0.313-0.343-0.557-0.507-0.781c-2.597-3.553-6.218-5-10.496-5.173c-3.091-0.125-6.01,0.418-8.625,2.105
		c-3.322,2.144-4.953,5.224-4.777,9.198c0.183,4.135,2.343,7.001,5.936,8.792c4.871,2.427,12.013,2.096,16.255-1.992
		c1.117-1.074,2.075-2.316,3.214-3.604c1.787,1.232,3.631,2.505,5.55,3.83c-1.317,2.563-3.161,4.566-5.392,6.173
		c-4.875,3.51-10.36,4.448-16.238,3.702c-4.116-0.522-7.796-1.968-10.97-4.687c-8.469-7.256-7.558-21.429,2.696-27.333
		c4.474-2.576,9.272-3.425,14.414-2.819c4.331,0.51,8.231,1.907,11.502,4.813C220.895,109.836,221.905,111.093,223.142,112.414z"/>
	<path fill-rule="evenodd" clip-rule="evenodd" d="M242.826,120.219c2.394-2.265,4.783-4.533,7.182-6.793
		c2.928-2.757,5.856-5.512,8.804-8.248c0.287-0.268,0.701-0.559,1.062-0.564c2.875-0.046,5.749-0.026,8.624-0.026
		c0.055,0.095,0.109,0.191,0.165,0.286c-5.861,5.446-11.723,10.892-17.667,16.415c5.938,5.523,11.808,10.985,17.905,16.659
		c-0.689,0.062-1.088,0.126-1.485,0.128c-2.131,0.009-4.265-0.059-6.392,0.027c-1.146,0.047-1.975-0.356-2.769-1.113
		c-4.004-3.824-8.028-7.624-12.055-11.423c-1.125-1.061-2.282-2.087-3.652-3.338c0,1.096,0,1.921,0,2.747
		c0,3.93-0.042,7.86,0.026,11.79c0.02,1.151-0.348,1.494-1.459,1.429c-1.463-0.085-2.938-0.084-4.401,0
		c-1.095,0.063-1.352-0.361-1.348-1.393c0.036-8.05,0.021-16.101,0.021-24.15c0-2.602,0-5.204,0-7.936c2.311,0,4.551,0,7.018,0
		c0,5.103,0,10.233,0,15.363C242.546,120.126,242.686,120.172,242.826,120.219z"/>
	<path fill-rule="evenodd" clip-rule="evenodd" d="M435.533,137.821c-2.498,0-4.752,0-7.167,0c0-8.887,0-17.71,0-26.742
		c-4.432,0-8.705,0-13.042,0c0-2.279,0-4.349,0-6.599c11.013,0,22.007,0,33.121,0c0,2.066,0,4.249,0,6.583
		c-4.289,0-8.529,0-12.912,0C435.533,120.039,435.533,128.865,435.533,137.821z"/>
	<path fill-rule="evenodd" clip-rule="evenodd" fill="none" d="M39.174,150.713c-15.711-0.667-29.6-13.801-29.227-31.295
		c0.381-17.984,15.028-30.626,31.292-30.286c17.985,0.375,30.723,14.941,30.358,31.365
		C71.186,139.063,55.569,151.699,39.174,150.713z M24.954,104.199c0,11.46,0,22.794,0,34.15c2.809,0,5.521,0,8.436,0
		c0-8.84,0-17.571,0-26.293c4.129,0,8.069-0.234,11.97,0.06c4.741,0.358,6.852,2.834,7.094,7.59c0.04,0.787,0.006,1.579,0.006,2.41
		c2.941,0,5.652,0,8.48,0c0-1.006,0.021-1.899-0.002-2.79c-0.187-7.041-4.039-12.214-10.816-14.099
		c-2.432-0.677-5.021-0.995-7.551-1.068c-5.393-0.157-10.794-0.05-16.192-0.043C25.918,104.115,25.46,104.167,24.954,104.199z"/>
	<path fill-rule="evenodd" clip-rule="evenodd" fill="none" d="M379.309,117.372c0-2.1,0-3.975,0-5.898
		c0.3-0.04,0.525-0.094,0.752-0.097c5.143-0.07,10.284-0.15,15.427-0.181c0.837-0.005,1.695,0.139,2.506,0.358
		c1.3,0.352,2.065,1.676,1.915,3.103c-0.149,1.432-1.274,2.525-2.823,2.7c-0.467,0.053-0.943,0.015-1.417,0.015
		c-4.917,0-9.834,0-14.751,0C380.408,117.372,379.899,117.372,379.309,117.372z"/>
	<path fill-rule="evenodd" clip-rule="evenodd" fill="none" d="M98.818,117.605c0-2.104,0-4.032,0-6.071
		c0.5-0.024,0.955-0.067,1.411-0.068c4.959-0.005,9.92-0.009,14.88,0.006c0.56,0.001,1.129,0.07,1.674,0.195
		c1.814,0.42,2.797,1.586,2.652,3.088c-0.164,1.706-1.378,2.826-3.255,2.888c-1.604,0.055-3.212,0.014-4.818,0.014
		c-3.826,0-7.653,0.001-11.479-0.002C99.563,117.654,99.241,117.625,98.818,117.605z"/>
	<path fill-rule="evenodd" clip-rule="evenodd" fill="none" d="M341.167,132.19c-3.233-0.25-6.237-0.805-8.875-2.716
		c-5.7-4.134-5.58-13.042,0.66-16.863c2.989-1.831,6.238-2.437,9.724-2.091c2.332,0.232,4.51,0.817,6.515,2.05
		c3.307,2.035,4.979,5.11,4.899,8.857c-0.089,4.114-2.186,7.211-5.941,9.103C345.913,131.657,343.505,131.949,341.167,132.19z"/>
	<path fill-rule="evenodd" clip-rule="evenodd" fill="none" d="M156.351,132.15c-3.907,0.12-7.29-0.794-10.039-3.421
		c-4.21-4.021-4.154-10.738,0.077-14.742c4.888-4.625,14.89-4.506,19.711,0.195c4.428,4.319,4.059,11.836-1.394,15.607
		C162.145,131.562,159.273,132.308,156.351,132.15z"/>
	<path fill-rule="evenodd" clip-rule="evenodd" fill="none" d="M286.085,117.467c0-2.084,0-3.958,0-5.911
		c0.267-0.034,0.488-0.087,0.712-0.087c5.631-0.005,11.263-0.021,16.894,0.003c2.482,0.009,3.81,2.247,2.698,4.444
		c-0.478,0.946-1.314,1.36-2.284,1.438c-1.317,0.104-2.645,0.105-3.968,0.108C295.502,117.474,290.868,117.467,286.085,117.467z"/>
	<path fill-rule="evenodd" clip-rule="evenodd" d="M24.954,104.199c0.506-0.031,0.964-0.084,1.423-0.084
		c5.398-0.007,10.8-0.114,16.192,0.043c2.53,0.074,5.119,0.392,7.551,1.068c6.778,1.885,10.629,7.058,10.816,14.099
		c0.024,0.891,0.002,1.784,0.002,2.79c-2.828,0-5.539,0-8.48,0c0-0.831,0.034-1.623-0.006-2.41c-0.242-4.756-2.353-7.232-7.094-7.59
		c-3.901-0.293-7.841-0.06-11.97-0.06c0,8.722,0,17.454,0,26.293c-2.915,0-5.627,0-8.436,0
		C24.954,126.993,24.954,115.659,24.954,104.199z"/>
</g>
</svg>
