<?xml version="1.0" encoding="utf-8"?>
<!-- Generator: Adobe Illustrator 19.2.1, SVG Export Plug-In . SVG Version: 6.00 Build 0)  -->
<svg version="1.1" id="layer" xmlns="http://www.w3.org/2000/svg" xmlns:xlink="http://www.w3.org/1999/xlink" x="0px" y="0px"
	 viewBox="0 0 652 652" style="enable-background:new 0 0 652 652;" xml:space="preserve">
<style type="text/css">
	.st0{fill:#3CB4C8;}
</style>
<path class="st0" d="M158,353.6c0,17.4-6.6,20.8-15.9,21.6c-3,0-5.7-0.4-8-1.2c-6.6-2.4-10.2-8.4-10.6-20.4v-29.7
	c0-13.1,3.7-18.3,9.6-20.4c1.9-0.7,4-1,6.4-1.2c11.6,0,18.1,5.3,18.6,21.5V353.6z M176.9,321.6c0-0.7-0.1-1.3-0.1-2
	c-1-18.2-9.4-27.1-18.8-31.4c-3-1.4-6.1-2.3-9.1-2.8c-2.9-0.5-5.7-0.8-8.2-0.8c-2.4,0-5.2,0.3-8.2,0.8c-3,0.6-6.1,1.4-9.1,2.9
	c-10,4.4-19,14-19,34.6v0.1v0.4v32.4c0,0.7,0.1,1.3,0.2,2c1,18.2,9.4,27.2,18.8,31.4c3,1.4,6.1,2.2,9,2.8c3,0.6,5.8,0.8,8.2,0.8
	c2.4-0.1,5.2-0.3,8.2-0.8c3-0.6,6.1-1.5,9.1-2.8c10-4.5,19-14.1,19-34.7c0,0,0,0,0,0l0-0.5C177,339.4,177,321.9,176.9,321.6
	 M227.6,246.1c-8.4,0-22.3,2-30.6,13.4c-3.4,4.8-5.9,11.1-6.6,19.6c-0.1,1.6-0.2,3.4-0.2,5.3v3.4c0,0,0,42.5,0,103.4
	c0,0,2.1,1.3,9,1.3c7.4,0,10-1.3,10-1.3v-87.5h19.7c0,0,0.8-2.4,0.8-8.2c0-5.9-0.8-7.7-0.8-7.7h-19.7v-3c0-19.1,13.3-21.6,20.8-21.6
	c2.9,0,4.9,0.4,4.9,0.4s0.9-5.2,0.9-9c0-3.8-0.9-7.8-0.9-7.8S231.9,246.1,227.6,246.1 M90.8,345.4c-0.2-0.3-0.4-0.4-0.7-0.7
	c-14.7-15.4-47.7-16.5-46.9-31.6c1-18.4,36.8-14.1,37.1,0.8c0,2.2,12.9,3.1,14.8-7.9c0.8-4.7-1.4-11.3-9.3-15.9
	c-28.5-16.8-61.3-0.8-61.7,24c-0.6,33.2,54.3,31.2,54.3,49.8c0,8.9-8.1,13.1-17.3,13.1C42.8,377,31,361.7,31,361.7s-4,2.3-6.9,6.1
	c-2.9,3.8-2.9,7.2-2.9,7.2s13.2,18.1,39.7,18.1c15.1,0,27.3-6.2,33-16.5c0.1-0.2,0.3-0.5,0.5-0.7c0.8-1.5,1.4-3,1.9-4.6
	c0.8-2.6,1.2-5.4,1.2-8.3c0-5.2-1.3-9.6-3.4-13.2C93.1,348.2,92,346.8,90.8,345.4 M511.2,372.4c-5-2.6-9.3-8.3-10-18.2
	c0-8,0-18.8,0-22.6v-83.9c0,0-3.8-1.7-9.8-1.7c-6,0-9,1.6-9,1.6c0,55.2,0,108.2,0.1,108.9c0.9,22,13,30.7,24.3,33.8
	c0.9,0.2,1.7,0.4,2.5,0.6c0.4,0.1,0.7,0.1,1.1,0.1c0,0,0,0,0,0c0.3,0.1,0.5,0.1,0.8,0.1v-0.2c0,0,0.1-0.2,0.2-0.7
	c0.3-1.2,0.8-4.1,0.8-9.6c0-3.4-0.4-5.6-0.6-6.9C511.4,372.9,511.2,372.4,511.2,372.4 M575.2,333.5l40.3-44.8c0,0-4.3-1.8-11.2-2
	c-11.3-0.3-16,5.4-16,5.4l-34.5,38.4c0-26.6,0-72.3,0-82.8c0,0-3.1-1.7-9.1-1.7c-6,0-9.8,1.7-9.8,1.7v1.9v33.3v48.7
	c0,3.8,0,13.9,0,22.6c0,8.7-4.9,15.6-10,18.2c0,0-0.2,0.5-0.4,1.4c-0.3,1.3-0.6,3.6-0.6,6.9c0,5.5,0.5,8.4,0.8,9.6
	c0.1,0.5,0.2,0.7,0.2,0.7v0.2c0.3-0.1,0.5-0.1,0.8-0.1c0,0,0,0,0,0c0.4-0.1,0.7-0.1,1.1-0.1c0.8-0.2,1.7-0.4,2.5-0.6
	c1.9-0.5,3.8-1.2,5.7-2.1c9.2-4.2,17.6-13.1,18.6-30.8l9.6-10.7l34.1,42c2.5,2.4,6.2,3.3,12.7,3.4c8.4,0,11.1-2.7,11.1-2.7
	L575.2,333.5z M430.7,378.6c-1.3,0-2.6-0.1-3.8-0.2c-1.8-0.3-3.6-0.8-5.2-1.5c-4.9-1.9-8.3-5.7-8.3-11.5c0-10.7,15.2-13.5,30.6-21.2
	c4.4-2.1,8.4-2.5,8.8,1C455.3,370.9,443.9,378.1,430.7,378.6 M468,312.6c-0.2-1.2-0.5-2.3-0.8-3.4c-0.3-1-0.6-1.9-1-2.8v0
	c-0.3-1-0.8-2-1.2-2.9c-0.1-0.2-0.2-0.5-0.3-0.7v0c-5.5-10.7-18.3-15.8-33-16.1c-0.4,0-0.7,0-1.1,0c-0.2,0-0.5,0-0.7,0
	c-0.8,0-1.7,0.1-2.5,0.2c-5.2,0.4-10,1.2-14.5,2.5c-6.3,1.8-11.8,4.4-16.8,7.6c-0.4,0.3-0.8,0.6-1.2,0.8c-0.2,0.1-0.4,0.2-0.6,0.4
	c-0.7,0.5-1.5,1.1-2.2,1.6c0,0-0.1,0-0.1,0.1c-0.4,0.3-0.7,0.6-1.1,0.9c-17,14-23,38.1-24.5,53.9l-3.1-10.4l-16.6-55.7
	c0,0-2.8-0.6-8.5-0.7h0h0c-1.1,0-2,0-2.9,0.1c-1.2,0.1-2.3,0.1-3.1,0.2c-1.7,0.2-2.5,0.4-2.5,0.4l-19.7,66.1
	c-2.1-21.3-12.2-57.6-46.5-64.1c0,0-1.1-0.3-3.3-0.7c0-6.3-0.1-11.6-0.1-11.8c0-15.1-18.8-13.5-18.8-13.5v40
	c17.6,0.8,21.1,2.7,24.7,4.2c26.4,11.2,30.9,54.5,32.7,82.7c0,0,1.2,1,7.9,1c7.8,0,8.4-1.1,8.4-1.2l20.2-67.5l3-9.9h0h0.1l23.2,77.3
	v0.2c0,0,0.9,0.7,5.2,0.9c0.9,0.1,2,0.1,3.3,0.1c6.7,0,7.9-1,7.9-1c1.5-22.5,4.6-54.4,19.1-72.2c2.6-3.2,5.6-5.9,9-8.1
	c8.6-6.3,17.5-8.8,24.9-8.8c0.3,0,0.6,0,0.9,0c5.2,0.2,9.6,1.7,12.6,4.2c2.4,1.9,3.8,4.4,4.1,7.4c0,0.3,0.1,0.6,0.1,1
	c0,5.3-4,8.8-9.6,11.8c-15.6,8.3-44.6,12.7-44.6,37.9c0,13.9,9,23.8,22.3,28.1c19.9,6.4,52.4-2.5,52.4-34.3v-32.9
	c0-3.1-0.2-6.2-0.6-9.1C468.5,315,468.2,313.8,468,312.6 M260.4,354.7v-36.2c-3.6-1.6-11.6-2.9-18.9-2.7c0,0,0,9.8,0,14
	c0,8.6-0.1,18.5,0,24.6c0,0.8,0,1.6,0.1,2.2c1,23.6,14.8,31.9,26.9,34.4c0.4,0.1,0.7,0.1,1.1,0.1c0,0,0,0,0,0
	c0.3,0.1,0.5,0.1,0.8,0.1v-0.2c0,0,1-2.4,1-10.3c0-5.8-1-8.4-1-8.4C265.3,369.8,260.4,363.3,260.4,354.7"/>
</svg>
