<svg xmlns="http://www.w3.org/2000/svg" height="95" width="316" xml:space="preserve" viewBox="0 0 316 95" y="0" x="0" id="laag_1" version="1.1"><style id="style2" type="text/css">.st1{fill:#fff}</style><path id="path4" d="M267.7 0l-5.3.3L28.5 16.2C12.5 17.9 0 31.2 0 47.3s12.5 29.3 28.5 31.1l233.8 16c1.8.2 3.5.3 5.3.3 26.6 0 48.2-21.2 48.2-47.3.1-26.2-21.5-47.4-48.1-47.4zm-254 54.6c-4 0-7.3-3.2-7.3-7.3 0-4 3.2-7.3 7.3-7.3 4 0 7.3 3.2 7.3 7.3 0 4-3.3 7.3-7.3 7.3zm1.9-6.6c.2-.1.3-.2.5-.3.2-.1.4-.3.5-.5.2-.2.3-.4.4-.7.1-.3.1-.6.1-.9 0-.4-.1-.7-.2-1.1-.1-.3-.3-.6-.6-.9-.3-.3-.6-.5-.9-.6-.4-.1-.8-.2-1.2-.2h-3.6v9h2v-3.5h1l1.7 3.5h2.3zm-3-3.4h1.5c.3 0 .6.1.8.3.2.2.3.4.3.7 0 .3-.1.5-.3.7-.2.2-.5.3-.8.3h-1.5z" fill="#00328c"/><g transform="translate(-77.6 -345.4)" id="g24"><path id="path6" d="M137.6 410h-6.9l-2.2-17.5-9 17.5h-7.1l-2.7-31.4h9l.6 16.6 8.3-16.6h6.4l1.9 16.6 6.8-16.6h9.7z" class="st1" fill="#fff"/><path id="path8" d="M178.2 388.7c0 1-.1 2-.2 3s-.3 1.9-.4 2.7c-.3 1.6-.6 3-1 4.2-.3 1.2-.7 2.3-1.1 3.3-.4 1-.9 1.8-1.4 2.6-.5.8-1.2 1.5-1.9 2.2-1.1 1.1-2.5 2-4.2 2.7-1.7.7-3.6 1-5.8 1-1.4 0-2.7-.2-4-.6-1.3-.4-2.5-1.1-3.5-1.9-1-.9-1.9-1.9-2.5-3.2-.6-1.3-.9-2.8-.9-4.6 0-1 .1-2 .2-3s.3-1.9.4-2.7c.3-1.6.6-3 1-4.2.4-1.2.7-2.3 1.1-3.3.4-1 .9-1.8 1.4-2.6.5-.8 1.2-1.5 1.9-2.2 1.1-1.1 2.5-2 4.2-2.7 1.7-.7 3.6-1 5.8-1 1.4 0 2.7.2 4 .6 1.3.4 2.5 1.1 3.5 1.9 1 .9 1.9 1.9 2.5 3.2.6 1.3.9 2.8.9 4.6zm-9 1.1c0-1-.2-1.8-.7-2.4-.5-.6-1.2-.9-2.1-.9-1.2 0-2.1.4-2.8 1-.7.6-1.2 1.5-1.6 2.6-.4 1.1-.7 2.5-1 4.1-.3 1.5-.5 2.6-.6 3.2-.1.7-.1 1.1-.1 1.3 0 1 .2 1.8.7 2.4.5.6 1.2.9 2.1.9 1.2 0 2.1-.3 2.8-1 .7-.6 1.2-1.5 1.6-2.6.4-1.1.7-2.5 1-4.1.3-1.5.5-2.6.6-3.2.1-.7.1-1.1.1-1.3z" class="st1" fill="#fff"/><path id="path10" d="M191 400.1c0 .2-.1.3-.1.4v.4c0 .9.6 1.3 1.7 1.3h3.3l-1.6 7.7h-4.5c-2.6 0-4.6-.7-6-2.1-1.4-1.4-2.1-3.1-2.1-5.2 0-.9.1-1.8.2-2.6l6.3-31.7h9.1z" class="st1" fill="#fff"/><path id="path12" d="M219.9 392.2l8.2 17.8h-10.4l-4.7-12.2-2.6 2.3-1.9 9.9h-9.1l8.3-41.5h9.1l-4.2 21.1 10.3-11h10.6z" class="st1" fill="#fff"/><path id="path14" d="M243.9 413.7c-.3.5-.7 1.1-1.1 1.8-.4.7-.9 1.3-1.5 1.8-1.1 1.1-2.3 1.9-3.6 2.4-1.3.5-2.7.7-4.3.7H230l1.7-8.3h1.9c.9 0 1.5-.2 2-.7.5-.5 1-1.2 1.5-2.1l1.3-2.5-4.4-28.3h9l1.7 17.5 8.5-17.5h9.6z" class="st1" fill="#fff"/><path id="path16" d="M280.8 387.9c-.5-.7-1.3-1.2-2.4-1.6-1-.3-2-.5-2.9-.5-1.5 0-2.5.2-3.2.7-.7.5-1 1-1 1.7 0 .9.6 1.5 1.9 1.7l4 .7c2.8.5 4.8 1.5 5.9 3 1.1 1.5 1.7 3.3 1.7 5.4 0 1.8-.3 3.3-1 4.6-.7 1.3-1.5 2.4-2.5 3.4-1.3 1.2-3 2.1-5 2.7-2 .5-4 .8-6 .8-2.9 0-5.4-.4-7.3-1.3-2-.8-3.6-2-5-3.5l6.5-5.7c.7.8 1.5 1.4 2.5 1.9s2.3.8 4 .8c1.6 0 2.9-.3 3.7-.8.8-.5 1.2-1.1 1.2-1.8 0-1-.7-1.6-2.2-1.9l-4-.7c-1.3-.2-2.4-.6-3.4-1.1-.9-.5-1.7-1-2.3-1.7-.6-.6-1-1.4-1.3-2.1-.3-.8-.4-1.6-.4-2.3 0-1.6.3-3.1.8-4.5s1.4-2.6 2.5-3.8c1.2-1.2 2.8-2.2 4.6-2.8 1.8-.6 3.9-.9 6.1-.9 2.3 0 4.3.3 6 .9 1.7.6 3.2 1.7 4.6 3.2z" class="st1" fill="#fff"/><path id="path18" d="M317.4 386.9c0 .7 0 1.3-.1 1.9-.1.6-.2 1.2-.3 1.7l-4 19.5h-9l3.8-19c.1-.5.2-1 .2-1.6 0-1-.3-1.8-.9-2.3-.6-.5-1.2-.7-1.8-.7-1 0-2 .3-2.9 1-.9.6-1.5 1.8-1.9 3.6l-3.8 19h-9.1l8.3-41.5h9.1l-2.4 12.2c1-.8 2.1-1.4 3.3-1.8 1.2-.4 2.4-.6 3.7-.6.8 0 1.7.1 2.6.4.9.3 1.8.8 2.6 1.4.8.7 1.4 1.5 2 2.7.3 1.1.6 2.5.6 4.1z" class="st1" fill="#fff"/><path id="path20" d="M348 388.7c0 1-.1 2-.2 3s-.3 1.9-.4 2.7c-.3 1.6-.6 3-1 4.2-.4 1.2-.7 2.3-1.1 3.3-.4 1-.9 1.8-1.4 2.6-.5.8-1.2 1.5-1.9 2.2-1.1 1.1-2.5 2-4.2 2.7-1.7.7-3.6 1-5.8 1-1.4 0-2.7-.2-4-.6-1.3-.4-2.5-1.1-3.5-1.9-1-.9-1.9-1.9-2.5-3.2-.6-1.3-.9-2.8-.9-4.6 0-1 .1-2 .2-3s.3-1.9.4-2.7c.3-1.6.6-3 1-4.2.3-1.2.7-2.3 1.1-3.3.4-1 .9-1.8 1.4-2.6.5-.8 1.2-1.5 1.9-2.2 1.1-1.1 2.5-2 4.2-2.7 1.7-.7 3.6-1 5.8-1 1.4 0 2.7.2 4 .6 1.3.4 2.5 1.1 3.5 1.9 1 .9 1.9 1.9 2.5 3.2.6 1.3.9 2.8.9 4.6zm-9.1 1.1c0-1-.2-1.8-.7-2.4-.5-.6-1.2-.9-2.1-.9-1.2 0-2.1.4-2.8 1-.7.6-1.2 1.5-1.6 2.6-.4 1.1-.7 2.5-1 4.1-.3 1.5-.5 2.6-.6 3.2-.1.7-.1 1.1-.1 1.3 0 1 .2 1.8.7 2.4.5.6 1.2.9 2.1.9 1.2 0 2.1-.3 2.8-1 .7-.6 1.2-1.5 1.6-2.6.4-1.1.7-2.5 1-4.1.3-1.5.5-2.6.6-3.2.1-.7.1-1.1.1-1.3z" class="st1" fill="#fff"/><path id="path22" d="M379.9 386.4v1.1c0 .4-.1.9-.1 1.5-.1.6-.2 1.3-.3 2.2-.2.9-.4 1.9-.6 3.1-.7 3.5-1.4 6.3-2.1 8.3-.7 2.1-1.6 3.6-2.7 4.7-1.2 1.2-2.5 2-3.8 2.4-1.3.4-2.6.6-4 .6s-2.7-.2-3.8-.7c-1.1-.5-2.1-1.2-2.9-2.1l-2.5 12.7H348l8.3-41.5h8.7l-.5 2.6c.9-.9 1.9-1.7 3.1-2.2 1.2-.5 2.6-.8 4.1-.8 1.6 0 3 .3 4.1.8 1.1.6 1.9 1.3 2.5 2.1.6.8 1 1.7 1.3 2.6.2 1 .3 1.8.3 2.6zm-9.5 3.2c0-.2 0-.5-.1-.9 0-.4-.1-.7-.3-1-.2-.3-.4-.6-.8-.8-.4-.2-.9-.4-1.5-.4-.9 0-1.6.2-2.1.5-.6.3-1 .8-1.5 1.4-.4.6-.7 1.5-1 2.4-.3 1-.5 2.1-.8 3.5-.2.7-.3 1.6-.4 2.5-.1.9-.2 1.7-.2 2.2 0 .2 0 .5.1.9 0 .4.1.7.3 1 .2.3.4.6.8.8.4.2.9.3 1.5.3.9 0 1.6-.2 2.1-.5.6-.3 1-.8 1.5-1.4.4-.6.7-1.5 1-2.4.3-1 .5-2.1.8-3.5.2-.7.3-1.6.4-2.5.2-.8.2-1.5.2-2.1z" class="st1" fill="#fff"/></g></svg>