<?xml version="1.0" encoding="utf-8"?>
<!-- Generator: Adobe Illustrator 19.2.1, SVG Export Plug-In . SVG Version: 6.00 Build 0)  -->
<svg version="1.1" id="layer" xmlns="http://www.w3.org/2000/svg" xmlns:xlink="http://www.w3.org/1999/xlink" x="0px" y="0px"
	 viewBox="0 0 652 652" style="enable-background:new 0 0 652 652;" xml:space="preserve">
<style type="text/css">
	.st0{fill:#E12B4F;}
</style>
<path class="st0" d="M116.3,264.8L58.9,386.2h55.8v20.6H27.2l-0.8-3l57.8-121.4H30.4v-20.8h85.1L116.3,264.8z M172,406.8h22.4V261.6
	H172V406.8z M257.3,406.8h71.1v-20.6h-48.7v-43.6h44v-20.2h-44v-40.2h48.7v-20.6h-71.1V406.8z M445.1,346.4l28.7,60.4H449
	l-23.8-53.9c-1.1,0.1-2.2,0.2-3.3,0.2h-7.9c-1.7,0-3.2,0-4.7-0.2v53.9H387V262.4c4.2-0.5,8.8-1,13.6-1.4c4.8-0.4,9.9-0.6,15.3-0.6
	c8-0.2,16,1,23.5,3.7c6,2.1,11.5,5.5,16.1,10c4.2,4.1,7.4,9.1,9.4,14.6c2.1,5.6,3.1,11.5,3.1,17.5c0,9.5-2,17.6-6,24.3
	C457.9,337.2,452.1,342.7,445.1,346.4L445.1,346.4z M438.2,327.8c4.6-4.6,6.8-11.4,6.8-20.4c0-8.2-2.3-14.7-6.8-19.4
	c-4.6-4.7-11.1-7.1-19.5-7.1c-3.1,0-6.2,0.3-9.3,0.8v52.5c3,0.4,5.9,0.6,8.9,0.6C427,334.7,433.7,332.4,438.2,327.8L438.2,327.8z
	 M569.6,260.2l48.3,146.5h-23l-9.9-31.7h-41l-9.9,31.7h-22.4l48.3-146.5H569.6z M579.2,356.2l-14.5-50.7l-14.7,50.7H579.2z
	 M626.4,260.2c0,1.8-0.4,3.6-1.1,5.2c-1.3,3.3-3.9,5.9-7.1,7.3c-1.6,0.7-3.4,1.1-5.2,1.1c-1.8,0-3.6-0.3-5.2-1c-1.6-0.7-3-1.7-4.2-3
	c-1.2-1.2-2.2-2.7-2.9-4.3c-0.7-1.7-1.1-3.5-1-5.3c0-1.8,0.3-3.7,1-5.4c0.7-1.6,1.6-3.1,2.9-4.4c1.2-1.2,2.7-2.2,4.3-2.9
	c5-2.1,10.9-1,14.7,2.9C625.1,253,626.5,256.5,626.4,260.2L626.4,260.2z M623.6,260.2c0-1.5-0.3-3.1-0.9-4.5
	c-0.5-1.3-1.3-2.6-2.3-3.6c-0.9-1-2.1-1.8-3.3-2.4c-2.7-1.2-5.8-1.2-8.5,0c-1.3,0.6-2.4,1.4-3.4,2.4c-1,1-1.8,2.3-2.3,3.6
	c-0.6,1.4-0.8,3-0.8,4.5c0,4.4,2.6,8.5,6.6,10.3c2.7,1.2,5.8,1.2,8.5,0c1.3-0.6,2.4-1.4,3.4-2.4c1-1,1.7-2.2,2.3-3.6
	C623.4,263.1,623.7,261.7,623.6,260.2L623.6,260.2z M615.6,261.6l3.4,5.2h-3.4l-2.5-4.6c-0.2,0.1-0.5,0.1-0.8,0.1h-0.4
	c-0.2,0-0.4,0-0.5-0.1v4.6h-3v-13.3c0.6,0,1.2-0.1,1.9-0.1c0.7,0,1.4,0,2.1,0c1.6-0.1,3.1,0.3,4.4,1.2c0.9,0.8,1.4,1.9,1.4,3.1
	c0,0.8-0.2,1.6-0.6,2.3C617.1,260.7,616.4,261.2,615.6,261.6L615.6,261.6z M615,257.8c0-1.3-0.8-1.9-2.5-1.9h-0.6
	c-0.2,0-0.4,0-0.6,0.1v3.9c0.3,0.1,0.7,0.1,1.1,0.1C614.2,259.9,615.1,259.2,615,257.8L615,257.8z"/>
</svg>
