<?xml version="1.0" encoding="utf-8"?>
<!-- Generator: Adobe Illustrator 19.2.1, SVG Export Plug-In . SVG Version: 6.00 Build 0)  -->
<svg version="1.1" id="layer" xmlns="http://www.w3.org/2000/svg" xmlns:xlink="http://www.w3.org/1999/xlink" x="0px" y="0px"
	 viewBox="0 0 652 652" style="enable-background:new 0 0 652 652;" xml:space="preserve">
<style type="text/css">
	.st0{fill:#5C6670;}
</style>
<path class="st0" d="M457.9,281.7c-26,0-46.4,17.8-46.4,40.6c0,22.8,20.4,40.6,46.4,40.6c26.7,0,48.4-18.2,48.4-40.6
	S484.6,281.7,457.9,281.7z M457.9,351.2c-18.8,0-34.7-13.2-34.7-28.9c0-15.5,15.6-28.1,34.7-28.1s35.5,12.9,35.5,28.1
	C493.4,337.6,476.9,351.2,457.9,351.2L457.9,351.2z M604.5,293.5v62.9c0,2.8-1.5,5.3-4,6.5c-0.9,0.4-1.9,0.7-3,0.7
	c-1.9,0-3.7-0.8-5-2.1l-56.4-58.6v57.4h-12.7v-72c0-3.8,3.1-6.9,6.9-6.8c1.9,0,3.6,0.8,4.9,2.1l56.6,58.8v-63.5
	C598.6,279.4,604.5,286,604.5,293.5z M395.5,282.9h14.7l-43.7,74.9c-2.1,3.5-6.6,4.7-10.1,2.6c-1.1-0.6-2-1.6-2.7-2.7l-43.2-74.8
	h14.7l34.9,60.5L395.5,282.9z M183.9,332.1c6.1-1.3,10.9-3.7,14.5-7.2c4.3-4.2,6.7-10,6.6-16.1c0-10.3-5.4-18.3-15.2-22.6
	c-4.4-1.9-9.1-2.9-13.8-3.1h-40.3v77.7h12.6v-27.7h18.2l21.1,23.1c5.4,5.5,16,4.9,20.2,4.4l-25.4-28.1L183.9,332.1z M174,320.5
	h-25.8v-24.8h27.5c1.8,0.1,16.7,1,16.7,13.1c0,3.9-1.5,5.9-2.6,7c-4,3.9-11.8,4.7-15.1,4.7L174,320.5L174,320.5z M320.2,360.3
	l-42.3-74.1c-1.5-2.6-4.2-4.2-7.2-4.2l0,0c-3,0-5.7,1.6-7.2,4.2l-42.4,74.1h14.7l10-17.4c4.5-2.4,13.2-4.8,25-4.8
	c11,0,19.7,2.1,24.6,4.6l10.1,17.6L320.2,360.3L320.2,360.3z M270.8,325.5c-5.3,0-10.5,0.4-15.7,1.4l15.6-27l15.5,26.9
	C281.1,325.9,275.9,325.5,270.8,325.5z M120.4,360.3L78,286.2c-1.5-2.6-4.2-4.2-7.2-4.2l0,0c-3,0-5.7,1.6-7.2,4.2l-42.4,74.1h14.7
	l10-17.4c4.5-2.4,13.2-4.8,25-4.8c11,0,19.7,2.1,24.6,4.6l10.1,17.6L120.4,360.3L120.4,360.3z M70.9,325.5c-5.3,0-10.5,0.4-15.7,1.4
	l15.6-27l15.5,26.9C81.2,325.9,76,325.5,70.9,325.5z M621.2,357.4c0,3.4-2.7,6.2-6.2,6.2c-3.4,0-6.2-2.8-6.2-6.2s2.8-6.2,6.2-6.2
	C618.4,351.3,621.2,354,621.2,357.4z M620.4,357.4c0-3-2.4-5.4-5.4-5.4s-5.4,2.4-5.4,5.4c0,3,2.4,5.4,5.4,5.4
	c2.9,0.1,5.4-2.3,5.4-5.2C620.4,357.5,620.4,357.4,620.4,357.4z M616.3,358.3l1.5,2.2h-0.9l-1.3-2c-0.1,0-0.3,0-0.4,0h-1.7v2h-0.8
	V354h2.4c1.6,0,2.5,0.8,2.5,2.2C617.8,357.1,617.2,358,616.3,358.3L616.3,358.3z M615.2,357.7c1.1,0,1.8-0.5,1.8-1.5
	c0-1-0.7-1.5-1.8-1.5h-1.7v3H615.2z"/>
</svg>
