<?xml version="1.0" encoding="utf-8"?>
<!-- Generator: Adobe Illustrator 19.2.1, SVG Export Plug-In . SVG Version: 6.00 Build 0)  -->
<svg version="1.1" id="layer" xmlns="http://www.w3.org/2000/svg" xmlns:xlink="http://www.w3.org/1999/xlink" x="0px" y="0px"
	 viewBox="0 0 652 652" style="enable-background:new 0 0 652 652;" xml:space="preserve">
<path d="M173.4,444.7c-8.4,1.7-12.7-1.5-12.3-7.9l0.1-1.7l7.4-1.5l-0.1,1c-0.2,3.4,2,4.4,5.2,3.7c3.3-0.7,4.7-2.5,4.9-4.8
	c0.4-6-16.7-0.9-15.9-11.9c0.4-5.7,5.3-11.4,13-12.9c7.8-1.6,12.2,1.8,11.7,7.8l-0.1,1.7l-7.4,1.5l0.1-1c0.2-2.7-1.4-4.3-4.8-3.6
	c-2.9,0.6-4.6,2.4-4.8,4.7c-0.4,5.8,16.8,0.7,16,11.6C186.2,437.3,181.5,443,173.4,444.7 M220,434.3l2.5-34.1l-8.1,1.6l-1,14
	l-10.8,2.2l1-14l-8.1,1.6l-2.5,34.1l8.1-1.6l1-13.6l10.8-2.2l-1,13.6L220,434.3z M247.3,417.9c-0.2,3.1-2.2,5.8-5.7,6.5
	c-3.6,0.7-5.2-1.3-4.9-4.3l0.9-11.9c0.2-3.1,2.2-5.8,5.7-6.6c3.5-0.7,5.2,1.3,4.9,4.4L247.3,417.9z M241.1,431
	c8.4-1.7,13.9-8,14.4-15.2l0.8-11.2c0.5-7.2-4.2-11.4-12.6-9.7c-8.4,1.7-13.9,7.9-14.4,15.1l-0.8,11.2
	C227.9,428.5,232.7,432.7,241.1,431 M284.8,421.2l0.5-6.9l-14.5,2.9l0.6-8.1l10.2-2.1l0.4-5.3l-10.2,2.1l0.5-7.2l14.5-2.9l0.5-6.6
	l-22.6,4.6l-2.5,34.1L284.8,421.2z M331.9,390.2l0.2-2.5c0.5-6.2-3.8-9.8-11.7-8.2c-8.4,1.7-13.9,8.2-14.4,15.2l-0.8,11
	c-0.5,7.1,4,11.5,12.6,9.8c7.5-1.5,12.7-6.9,13.2-13.1l0.2-2.7l-7.4,1.5l-0.2,2.2c-0.2,2.8-2,4.8-5.1,5.5c-3.5,0.7-5.4-1-5.2-4.2
	l0.9-12.1c0.2-3.4,2.3-5.9,5.9-6.6c3.1-0.6,4.8,0.6,4.5,3.7l-0.1,2L331.9,390.2z M356.5,395.8c-0.2,3.1-2.2,5.8-5.7,6.5
	c-3.6,0.7-5.2-1.3-4.9-4.3l0.9-11.9c0.2-3.1,2.2-5.8,5.7-6.6c3.5-0.7,5.2,1.3,4.9,4.4L356.5,395.8z M350.3,408.9
	c8.4-1.7,13.9-8,14.4-15.2l0.8-11.2c0.5-7.2-4.2-11.4-12.6-9.7c-8.4,1.7-13.9,7.9-14.5,15.1l-0.8,11.2
	C337.1,406.4,341.9,410.6,350.3,408.9 M406.5,396.6l2.5-34.1l-10.7,2.2l-6.7,18.7l-1.6,4.7l-0.9-4.2l-4.2-16.5l-10.9,2.2l-2.5,34.1
	l7.3-1.5l1.7-23.1l1.2,5.7l4.2,16l5.6-1.1l6.8-18.2l2.2-6.4l-1.7,23.1L406.5,396.6z M433.3,370.2c-0.1,2-1.2,3.4-3.6,3.9l-5.5,1.1
	l0.7-9.8l5.4-1.1c2.5-0.5,3.3,0.5,3.2,2.5L433.3,370.2z M430.5,379.5c6.6-1.3,10.4-5.7,10.8-11.1l0.3-3.5c0.4-5.4-2.8-8.4-9.4-7.1
	l-14.7,3l-2.5,34.1l8.1-1.6l0.9-12.5L430.5,379.5 M460.2,373.4l-6.4,1.3l4.2-13L460.2,373.4z M470.9,383.6l-7.6-32.1l-8.8,1.8
	l-12.6,36.2l7.5-1.5l2.5-7.3l9.4-1.9l1.4,6.5L470.9,383.6z M503.2,377l2.5-34.1l-7.5,1.5l-1.4,19.7l-2.3-3.7l-8.6-13.4l-6.8,1.4
	l-2.5,34.1l7.5-1.5l1.4-19.5l2.4,3.8l8.9,13.1L503.2,377z M540.6,335.8l-8.3,1.7l-7.2,14.9l-5.5-12.3l-8.7,1.8l9.2,18.3l-1,13.7
	l8.1-1.6l1-13.7L540.6,335.8z M493.5,225.9c4.7,0.5,9-3.1,9.4-7.8c0.5-4.8-3-9.1-7.7-9.6c-4.7-0.5-9,3.1-9.4,7.8
	C485.3,221.2,488.8,225.5,493.5,225.9 M439.6,275.7c2.4-7.7,10.3-21.2,18.3-18.6c3.6,1.2,4.2,6.8,2.9,13.2
	c-1.7,8.6-7.1,18.7-24.2,24.5C436.6,294.8,436.9,284.6,439.6,275.7 M227.2,334c-3.5,14.6-11.9,25-19.6,24.4c-0.4,0-0.8-0.1-1.2-0.2
	c-3.9-1-6.8-4.8-8.1-10.8c-1.3-5.8-1.1-13,0.7-20.3c2-8.3,5.7-15.7,10.3-20.1l1.2-1.1c2.3,13.6,17.7,10.2,17.7,10.2l0.3,1.3
	C229.1,322.4,228.7,328.2,227.2,334 M156.7,338.9l0.3-2.9c0-0.2,1.3-23.8,7.6-43.5c6.4-19.7,12.7-28,16.6-27.7
	c0.5,0,1.2,0.3,1.7,1.2c2,3.4,0.6,15.4-7.3,34.4c-8.8,21.5-17.2,35.2-17.2,35.3L156.7,338.9z M378.7,219.7
	c2.6-6.3,6.9-12.5,10.2-12.2c0.7,0.1,1.3,0.4,1.8,1c1.1,1.4,1,4.3,0.6,8.6c-1.9,18.7-18.8,38.2-18.8,38.2S374,231.1,378.7,219.7
	 M458.1,248.9c-13.3-0.6-25,10.9-32.2,25.1c-9,17.8-6.6,39-6.6,39s-6.7,10.6-12.9,10.6c-0.7,0-1.3-0.3-1.8-0.6
	c-4.3-2.9-3.8-8.6-3.3-13.3c0.1-0.8,2.7-31.7,3.1-36.3c0.6-7-5.7-12.1-10.4-11.1c-12.2,2.7-24.7,19-24.7,19l0.9-11.7
	c0.2-0.3,24.9-27,27.6-50.4c1.7-14.7-0.8-22.8-8.9-22.8c-3.8,0-9.6,3.8-14.9,10.4c-6.5,8.2-11.8,19.6-14.7,31.9
	c-4.1,17-6.1,35.4-6.5,39.2c-0.4,3.7-2.4,24.4-3.1,34.3c0,0,0,0.1,0,0.1c-0.5,3-1.7,6-3,8.7c-2.9,6.1-7.2,11.5-11.8,16.3
	c-3.1,3.2-5.5,4.7-5.8,5.2c2.9-5.1,4.7-11,4.8-16.8l-0.2-5.5c-0.5-7.4-2.3-10.6-4.7-15.5c-0.5-0.9-1-1.8-1.5-2.7
	c-1.4-2.8-2.7-5.6-3.5-8.6c-0.7-3-1-5.6,0.3-8.4c1.1-2.4,2.9-4.1,5.5-5c1.1-0.3,2.3-0.4,3.6-0.4c0.9,0,1.8,0.2,3.1,0.7
	c1.6,0.6,3.4-0.1,4-1.8c0.6-1.6-0.1-3.4-1.7-4.1c-1.4-0.6-3.2-1.2-5.3-1.2c-10.3,0-15.6,6.7-19.5,11.6l-0.6,0.8
	c-1.7,2.1-2.6,3.4-3.4,4.6c-0.8,1.2-1.6,2.3-3.2,4.3c-2.7,3.4-8,5.9-12,6.8c1.8-2.3,2.7-5.3,2.2-8.4c-1-5.8-6.5-9.6-12.2-8.4
	l-0.3,0.1c-6,1.2-12.1,10.4-12.6,11l-1.9,2.5l0.8-8.9l-17.1,3.5c-4.7,13-20,15.4-20,15.4c-3.3-5.2-7.7-8.7-12.9-10.1
	c-1.2-0.3-2.4-0.5-3.6-0.6c-14.4-1.2-29.3,13.1-34.8,33.3c-2.1,7.9-2.6,16.1-1.4,23.5l-1.4,2.4c-5,8.4-8.7,14.5-14.1,14
	c-0.5,0-1.1-0.2-1.6-0.3c-6.4-2-5.1-16.2-5-17.8c0,0,16-24.4,26.7-56.6c8-23.9,5.3-33.8,3.1-37.5c-1.2-1.9-2.7-3.2-4.7-3.4
	c-6.4-0.4-19.5,7-31.5,38.5c-13,34.3-14.5,66.3-14.5,66.6l0,0.2l-0.1,0.2c-6.3,10.1-16.6,25-22,32.6c-1.3,1.9,0.3,4.5,2.6,4
	c0.6-0.1,1.1-0.4,1.4-0.9c3.2-4,12.4-15.5,18.3-24.6l1.2-1.9c0,0,0.5,3,0.6,3.4c0.4,2,1,4,1.8,5.9c1,2.5,2.3,5,4.1,7
	c1.9,2.1,4.4,3.6,7.3,3.6c4.4,0.1,8.5-1.9,12-4.4c3.1-2.2,5.8-4.9,8.2-7.8c2-2.3,3.8-4.8,5.4-7.3c0.7-1.1,4.4-7.5,4.4-7.5l1,2.2
	c3.4,7.2,8.5,11.9,14.8,13.6c1.2,0.3,2.4,0.5,3.6,0.6c14.4,1.2,29.3-13.1,34.8-33.3c2.8-10.6,2.8-21.3-0.2-30.3l-0.5-1.3
	c11.3-3.4,15.9-9.3,15.9-9.3l-5.6,66.2l17.3-3.5l4.1-50.7c0.7-8,4.3-16.2,9.7-15.7l0.5,0.1c0,0,0.1,0.3,0.3,0.4
	c3.4,5.2,10.9,7.2,16.7,5.9c3.6-0.8,9.8-3.2,13.9-6.9c-0.6,6.5,1.1,13.6,3.8,20.3c1.9,4.6,3.1,8,3.2,14.8
	c0.1,10.6-5.3,15.5-10.2,16.1c-2.6,0.3-4.1-1.6-4.1-1.6s4-3.2,4-7.8c0-5.9-4.8-10.6-10.6-10.5c-5.8,0.1-10.4,4.9-10.4,10.8l0,0.5
	c0,1.2,0.3,5.2,3,8.8c0,0,0,0,0,0c2.1,2.8,5.2,4.5,8.4,5.4c4.4,1.2,9.1,1.4,13.6,0.6c3.9-0.7,7.8-2.1,11.4-3.7l0.2-0.1
	c10.5-5.1,20.1-14,26.5-23.7l-1.7,20.1l17.3-3.3c0.6-5.3,3.9-45.1,4.4-50.5c0.6-6.9,8.5-17,14.2-18.1c3-0.6,4.3,4,3.9,8.7l-3.2,38.2
	c-1.1,12.6,5.4,16.9,10.2,15.8c2.5-0.6,13,0.3,28.8-21c0,0,8.9,13.1,25,10.1c13.1-2.4,23.5-16.9,27.7-23.6l2.8-5.4l-0.1,6.2
	c0,0.1-0.2,13.9,7.6,14.5c11.3,1,24.8-19.3,25-19.5l3.2-4.5l-1.6,19l17.2-3.5l4.3-49.6c0.4-5,8-16,12.8-15.4c4,0.5,3.4,7.7,3.2,8.9
	l-4.4,52.9l17.2-3.5l4.1-49.2c0.5-5.1,8.1-16.4,13-15.8c3.3,0.4,3.4,5.7,3.2,8.8l-2.4,29.6c-1.2,14,7.1,19.3,13.5,19.5
	c6,0.2,15.7-2.1,23.8-12.3c1.7-2,2.9-3.5,3.8-4.6c0.9-1.2,0.1-2.9-1.3-3c-1.1-0.1-2.2,0.4-2.9,1.3c-3.5,4.3-9.3,10.4-14,10.2
	c0,0-2.1,0.2-3.9-1.9c-2.7-3.2-2-9.7-1.7-13.2l3.1-38c0.8-9.7-8-14.9-12-14c-10.9,2.3-20.8,17.1-20.8,17.1
	c-0.8-2.9-3.9-9.6-11.4-10.3c-7.9-0.8-20.8,15.3-20.9,15.5l-0.9,1.1l1-12.6l-17.2,3.5c-0.5,4.5-2.5,30.6-3,36.8
	c-0.7,8.1-5.5,16.5-5.9,17.2c0,0-6.1,10.4-10.3,9.1c-2.9-0.9-2.8-4.6-2.6-6.8l4.5-52.9l-17.1,3.5c-0.4,5.2-2,35.8-12.9,53.9
	c-7.1,11.7-16.1,18.6-23.1,18.3c-8.8-0.4-10.3-15.1-10.3-15.1s29.6-9.3,33.1-35.9C471.6,259.1,467.4,249.4,458.1,248.9 M31.7,383.1
	c-4.2,0.4-10,5-10.4,11.8c-0.7,13.9,2.6,19.5,8.5,27.2c7,9.1,20.6,10.3,20.9,10.4c2.2,0.2,13.5,0.8,25-5.8
	c14.7-8.3,25.3-26.5,27.5-49.9l3.2-40l14.1-2.8c7.3-1.5,12.8-7.6,13.5-15.2c0.1-1-0.8-1.8-1.7-1.6l-25.5,5.1l0.1-4.6l0.1-1.7
	c1-18.9,6.1-37.8,14.5-54.6c2.3-4.6,2.8-7.2,1.5-8.7c-0.4-0.5-1-0.8-1.7-0.8c-0.3,0-0.5,0-0.8,0.1c-1.1,0.2-2.1,0.9-3,1.7
	c-14.3,10.8-22.6,27.6-27,39.8c-3.6,10-6.3,20.8-8.4,34.6c0,0-1.1,12.4-2.4,28.7c-1.1,12.3-1.7,20-3.1,29
	c-5.1,32.4-18.3,36.9-25.7,36.6c-0.6,0-1.1-0.1-1.6-0.1c-12.8-0.9-16.9-13.7-16.9-13.7l1.9,0.1c0.8,0,1.7-0.1,2.5-0.3
	c6.8-1.5,11.2-8.3,9.8-15.3C45.2,386.1,38.5,381.7,31.7,383.1 M222.5,196.6c-0.6,0-1.2,0.2-1.6,0.6c-4,3.3-26.6,21.5-56.9,25.7
	c-19.6,2.7-43.5,2.1-70.8,11.3c-23.1,7.8-38.9,22.6-44,29.9c-5.1,7.3-9.5,20.3-5.3,33.2l0,0c1.4,5.5,6.4,9.7,12.4,9.7
	c7.1,0,12.8-5.7,12.8-12.8c0-7.1-5.7-12.8-12.8-12.8c-1,0-1.9,0.1-2.9,0.3c0.2-1.3,4.9-22.9,43.7-33c40-10.3,46.4-3.1,71.9-9.7
	c23.6-6.1,46-22.5,55.6-38.5C225.7,198.8,224.5,196.6,222.5,196.6"/>
</svg>
