<?xml version="1.0" encoding="utf-8"?>
<!-- Generator: Adobe Illustrator 19.2.1, SVG Export Plug-In . SVG Version: 6.00 Build 0)  -->
<svg version="1.1" id="layer" xmlns="http://www.w3.org/2000/svg" xmlns:xlink="http://www.w3.org/1999/xlink" x="0px" y="0px"
	 viewBox="0 0 652 652" style="enable-background:new 0 0 652 652;" xml:space="preserve">
<style type="text/css">
	.st0{fill:#8B0045;}
</style>
<path class="st0" d="M163.6,411.2L163.6,411.2c-6.2,0-11.3-5.3-11.3-11.8l0.2-123c0-12.7-9.6-23.1-21.4-23.1
	c-11.8,0-21.4,10.4-21.4,23.1l0,123c0,6.5-5.1,11.7-11.3,11.7c-6.2,0-11.3-5.3-11.3-11.7l0-123c0-25.7,19.7-46.6,43.9-46.6
	c24.2,0,43.9,20.9,43.9,46.6l-0.1,123.1C174.8,406,169.8,411.2,163.6,411.2"/>
<path class="st0" d="M577.9,253.6c-11.8,0-21.4,10.4-21.4,23.1v88.6c0,12.7,9.6,23.1,21.4,23.1c11.8,0,21.4-10.4,21.4-23.1v-88.6
	C599.3,263.9,589.7,253.6,577.9,253.6 M577.9,411.8c-24.2,0-43.9-20.9-43.9-46.6v-88.6c0-25.7,19.7-46.6,43.9-46.6
	c24.2,0,43.9,20.9,43.9,46.6v88.6C621.8,390.9,602.1,411.8,577.9,411.8 M33.1,411.2c-6.2,0-11.3-5.3-11.3-11.7l0-123.2
	c0-25.7,19.7-46.6,43.9-46.6c24.2,0,43.9,20.9,43.9,46.6v123c0,6.5-5.1,11.7-11.3,11.7c-6.2,0-11.3-5.3-11.3-11.7v-123
	c0-12.7-9.6-23.1-21.4-23.1s-21.4,10.4-21.4,23.1l0,123.2C44.4,406,39.3,411.2,33.1,411.2 M242.9,411.5c-24.2,0-43.9-20.9-43.9-46.6
	l-0.2-123.1c0-6.5,5-11.8,11.3-11.8h0c6.2,0,11.3,5.2,11.3,11.7l0.2,123.1c0,12.8,9.6,23.1,21.4,23.1c11.8,0,21.4-10.4,21.4-23.1
	l0-123.1c0-6.5,5.1-11.7,11.3-11.7c6.2,0,11.3,5.3,11.3,11.7l0,123.1C286.8,390.6,267.1,411.5,242.9,411.5 M387.5,411.8
	c-6.2,0-11.3-5.3-11.3-11.7V277c0-12.7-9.6-23.1-21.4-23.1c-11.8,0-21.4,10.4-21.4,23.1l0,123c0,6.5-5.1,11.7-11.3,11.7
	c-6.2,0-11.3-5.3-11.3-11.7l0-123.1c0-25.7,19.7-46.6,43.9-46.6c24.2,0,43.9,20.9,43.9,46.6v123.1
	C398.8,406.6,393.7,411.8,387.5,411.8 M510.2,401.4c0,13.7-22.7,14.6-22.7,0.9v-45.5c0-13.6-9.1-21.5-22.1-21.5
	c-6.4,0-9.4-5-9.4-9.9c-0.3-5.1,2.9-10.8,9.4-10.8c12.9,0,22.8-10.8,22.8-24.8v-14.4c0-14.1-9.3-21.2-22.2-21.2
	c-13,0-20.7,7.1-20.7,21.2v126.2c0,13.7-23.1,13.7-23.1,0V275.3c0-25.5,20.4-45.9,43.8-45.9c23.7,0,44.7,20.4,44.7,45.9v14.4
	c0,12.8-6.2,29-29,34.1c23.4,3.5,28.4,19,28.4,32.1V401.4z"/>
</svg>
