<?xml version="1.0" encoding="utf-8"?>
<!-- Generator: Adobe Illustrator 19.2.1, SVG Export Plug-In . SVG Version: 6.00 Build 0)  -->
<svg version="1.1" id="layer" xmlns="http://www.w3.org/2000/svg" xmlns:xlink="http://www.w3.org/1999/xlink" x="0px" y="0px"
	 viewBox="0 0 652 652" style="enable-background:new 0 0 652 652;" xml:space="preserve">
<style type="text/css">
	.st0{fill:#231815;}
	.st1{clip-path:url(#SVGID_2_);fill:#231815;}
	.st2{clip-path:url(#SVGID_2_);fill:#A35EB5;}
</style>
<path class="st0" d="M138.4,408.8c3.2-7.1-1.2-9.8-11.7-9.8l-17.5,0c-3.8,0-4.6-0.3-3.8-2.1l1.3-2.7c0.8-1.8,1.9-2.1,5.7-2.1l23,0
	c4.7,0,6.7,0.6,9.3,1.6l2.3-9.7l-45.8,0c-8.7,0-15.5,4-19,11.6l-4.9,10.9c-3.8,8.1-1.1,10.6,8.8,10.6l20.1,0c3.9,0,4.5,0.4,3.7,2.1
	l-1.5,3.3c-0.8,1.8-1.8,2.1-5.6,2.1H78.7c-4.9,0-6.9-0.9-8.8-1.8l-2.5,9.9l44.6,0c11.9,0,17.4-4.3,20.9-11.9L138.4,408.8z"/>
<path class="st0" d="M257.9,411.4c5.7,0,8.2,0.7,10.6,1.3l4.9-10.6c-2.9,0.6-6.1,1.3-11.7,1.3H244l5.3-11.4l20.1,0
	c5.8,0,8.3,0.7,10.7,1.3l2.3-9.4l-56.1,0c0.4,1.9,0.3,3.7-1.8,8.4l-14.6,32c-1.3,2.9-2.5,4.7-3.6,6.1c-1.5-2.6-2.6-5.5-3.3-7.7
	l-7.9-24.4l16.4-9.6c4.7-2.8,7.2-3.6,10.7-4.8l-22.6,0c-0.2,0.6-0.3,1.2-0.6,1.8c-0.7,1.6-1.9,2.8-5.9,5.3l-23.7,14.8l6.2-13.5
	c2.1-4.6,3.8-6.4,5.9-8.4l-28.8,0c0.4,1.9,0.3,3.7-1.8,8.4l-14.6,32c-2.1,4.6-3.7,6.4-5.8,8.4l28.7,0c-0.3-2-0.3-3.8,1.8-8.4
	l3.4-7.3l8.1-5l5,20.7l83.7,0l6.5-9.4c-2.8,0.6-6,1.3-11.7,1.3h-21.5l6-13.1L257.9,411.4z"/>
<path class="st0" d="M331.9,420.7c0,0-7.8,1.8-17.6,1.8c0,0-9.6,0-11.6,0c-2.5,0-3.3-0.7-2.3-3.1c0.9-2.4,10.5-22.9,10.5-22.9
	c0.3-0.7,1.5-2.8,4.6-2.8l18.1,0c4.5,0,8.6,1.5,8.6,1.5l2.9-11.2l-0.1,0l0.1-0.3l-38.9,0c-10.6,0-18.2,3.8-23,14.3l-9.2,20.1
	c-4.8,10.5-0.7,14.3,9.8,14.3l39.9,0L331.9,420.7z"/>
<path class="st0" d="M402.5,424.2l14.7-32c2.1-4.6,3.8-6.4,5.8-8.4l-28.7,0c0.3,1.9,0.3,3.7-1.8,8.3l-5.1,11.2H369l5.1-11.1
	c2.1-4.6,3.8-6.4,5.9-8.4l-28.8,0c0.4,1.9,0.3,3.7-1.8,8.3l-14.6,32c-2.1,4.6-3.8,6.4-5.9,8.4l28.8,0c-0.3-1.9-0.3-3.8,1.9-8.4
	l5.9-12.8l18.4,0l-5.8,12.8c-2.1,4.6-3.8,6.4-5.9,8.4l28.7,0C400.4,430.6,400.4,428.8,402.5,424.2"/>
<path class="st0" d="M454.4,424.5l-21.4,0l6-13.1h17.6c5.6,0,8.2,0.7,10.5,1.3L472,402c-2.9,0.6-6,1.3-11.7,1.3l-17.7,0l5.2-11.4
	l20.1,0c5.8,0,8.3,0.7,10.7,1.3l2.3-9.4l-56,0c0.3,1.9,0.3,3.7-1.8,8.4l-14.6,32c-2.1,4.6-3.8,6.4-5.9,8.4l57,0l6.5-9.4
	C463.4,423.8,460.2,424.5,454.4,424.5"/>
<path class="st0" d="M534.2,411.3c5.4-0.3,10.2-0.7,13.5-7.8l4.1-9c3.7-8.2-0.5-10.8-11.9-10.8l-53.2,0c1,1.9,0.9,3.7-1.2,8.4
	l-14.6,32c-2.1,4.6-3.7,6.4-5.9,8.4l28.8,0c-0.3-2-0.3-3.8,1.8-8.4l5.8-12.8l7.6,0l2,21.2l27.6,0c-1.3-1.9-1.4-4.4-1.9-7.5
	L534.2,411.3z M527.1,394.6l-2.7,6c-1.1,2.4-2.2,2.7-5.4,2.7l-14,0l5.3-11.4l13.9,0C527.4,391.8,528.2,392.2,527.1,394.6"/>
<path class="st0" d="M580,394c0.8-1.8,1.9-2.1,5.8-2.1l22.9,0c4.8,0,6.7,0.6,9.3,1.6l3.2-9.7l-46.7,0c-8.7,0-15.5,4-19,11.6
	l-4.9,10.9c-3.8,8.1-1,10.6,8.8,10.6l20.1,0c3.8,0,4.5,0.4,3.7,2.2l-1.5,3.3c-0.8,1.8-1.8,2.1-5.7,2.1l-23.8,0
	c-4.8,0-6.9-0.9-8.9-1.8l-2.4,9.9l44.5,0c11.9,0,17.4-4.3,20.9-12l5.5-11.9c3.2-7.1-1.2-9.8-11.7-9.8h-17.5c-3.9,0-4.6-0.3-3.8-2.1
	L580,394z"/>
<path class="st0" d="M349.1,230.4c-7.9-11.7-24.4-17.3-50.5-17.3c-27,0-89.4-0.3-107-0.3c-18.3,0-57.8-0.2-78.9,3.5
	c-31.8,5.7-48.9,23.6-57.2,41.3c-5.8,12.4-10.7,32.8,2.2,45.1H35.9c0,0-6.1,8.8-9.5,15.2c-6.5,12.3-8.1,26.8,2.3,36
	c7.6,6.8,22.9,11.8,44,11.8c9.3,0,113.1,0.5,155.1,0c56.7,0,77.6-12.1,96.9-43.2c5.4-8.6,16.6-32.8-5-47.1h20.1c0,0,4.1-7.3,7-12.3
	C354.8,249.2,355.7,240.2,349.1,230.4 M318,265.3c-2,3.5-5.3,9.5-5.3,9.5h-16.4c8.3,6.3,10.6,15.8,10.6,21.4c0,6.6-2.2,14-6.6,22
	c-15.7,28.6-32,38.5-67.5,40.7c0,0-0.1,0-0.1,0c-16.7,0.8-41.8,0.8-67.4,0.8c-25.6,0-63.7-0.1-72.3-0.5
	c-16.9-0.8-30.6-3.1-37.1-13.9c-6.8-11.1-1.7-24.1,1.1-29.5c1.6-3.1,7.2-13.1,7.2-13.1H89c-12.1-7.6-17.7-24-8.8-41.5
	c10.2-20.2,21.3-34,47.5-38.9c15.8-3.1,52.5-3.1,68.2-3.1l83.2,0.3c11.4,0.1,34.8,0.5,43.1,17.4C327.4,247.3,322.4,257.7,318,265.3"
	/>
<path class="st0" d="M138.3,310.6c0,0-0.3,0.8-0.8,2c-4.7,10.9,8.5,8,17.9,8.1c17,0.1,39.1,0.1,49.4-0.4c10.1-0.3,19.2,2.5,23.8-7.6
	c4.3-9.5-6.2-10.4-15.9-10.4c0,0-55.9,1.5-80.4-0.4c-28.3-1.6-31.6-12.8-21.6-34.8c8-17.4,17.4-29.4,42.8-34.1
	c17.1-3.3,50.4-3.5,67.2-3.5l31,0.4c17.9,0.2,38,0.3,42.2,14.3c1.7,6.8-2,16.1-5.2,23.6h-43.7c3.4-9-2.5-9.3-12.2-9.6
	c-13.9-0.2-39.7-0.1-55.9,0.6c-8.1,0.3-17.1-0.9-20.3,6.1c-5.2,11.4,11.1,10.2,21,10.6c0,0,46.2,0.5,58.6,0.5
	c34,0,51.6,5.3,37.7,35.7c-13.2,28.8-31.4,34.1-66.2,36.2c-24.3,1.3-63.9,1.7-84.9,0.7c-27.5-1.3-44.2-4.2-31.9-31l3.2-7H138.3z"/>
<g>
	<defs>
		<path id="SVGID_1_" d="M153.6,233c-25.4,4.8-34.9,16.7-42.8,34.1c-10.1,22-6.7,33.2,21.6,34.8c24.6,1.9,80.4,0.4,80.4,0.4
			c9.7,0,20.2,0.9,15.9,10.4c-3.7,8.1-10.3,7.8-18.1,7.6c-1.9-0.1-3.8-0.1-5.8,0c-10.3,0.5-32.4,0.5-49.4,0.4
			c-1.7,0-3.4,0.1-5.2,0.2c-8.3,0.4-16.6,0.8-12.7-8.2c0.5-1.2,0.8-2,0.8-2h-44l-3.2,7c-12.2,26.7,4.5,29.7,31.9,31
			c21,1,60.6,0.6,84.9-0.7c34.8-2.1,53-7.4,66.2-36.2c13.9-30.4-3.6-35.7-37.7-35.7c-12.5,0-58.6-0.5-58.6-0.5
			c-9.9-0.4-26.3,0.9-21-10.5c3.2-7,12.2-5.8,20.3-6.1c16.1-0.8,41.9-0.9,55.9-0.6c9.7,0.3,15.6,0.6,12.2,9.6h43.7
			c3.2-7.5,6.9-16.8,5.2-23.6c-4.2-13.9-24.3-14.1-42.2-14.3l-31-0.3C204,229.5,170.7,229.7,153.6,233"/>
	</defs>
	<clipPath id="SVGID_2_">
		<use xlink:href="#SVGID_1_"  style="overflow:visible;"/>
	</clipPath>
	<path class="st1" d="M138.3,310.6c0,0-0.3,0.8-0.8,2c-4.7,10.9,8.5,8,17.9,8.1c17,0.1,39.1,0.1,49.4-0.4
		c10.1-0.3,19.2,2.5,23.8-7.6c4.3-9.5-6.2-10.4-15.9-10.4c0,0-56.5,1.2-80.4-0.4c-28.3-1.6-31.6-12.8-21.6-34.8
		c8-17.4,17.4-29.4,42.8-34.1c17.1-3.3,50.4-3.5,67.2-3.5l31,0.4c17.9,0.2,38,0.3,42.2,14.3c1.7,6.8-2,16.1-5.2,23.6h-43.7
		c3.4-9-2.5-9.3-12.2-9.6c-13.9-0.2-39.7-0.1-55.9,0.6c-8.1,0.3-17.1-0.9-20.3,6.1c-5.2,11.4,11.1,10.2,21,10.6
		c0,0,46.2,0.5,58.6,0.5c34,0,51.6,5.3,37.7,35.7c-13.2,28.8-31.4,34.1-66.2,36.2c-24.3,1.3-63.9,1.7-84.9,0.7
		c-27.5-1.3-44.2-4.2-31.9-31l3.2-7H138.3z"/>
	<rect x="77" y="270.1" class="st2" width="250.4" height="2.8"/>
	<rect x="77" y="279" class="st2" width="250.4" height="2.8"/>
	<rect x="77" y="261.4" class="st2" width="250.4" height="2.8"/>
	<rect x="77" y="252.8" class="st2" width="250.4" height="2.8"/>
	<rect x="77" y="244.1" class="st2" width="250.4" height="2.8"/>
	<rect x="77" y="235.4" class="st2" width="250.4" height="2.8"/>
	<rect x="77" y="226.7" class="st2" width="250.4" height="2.8"/>
	<rect x="77" y="287.8" class="st2" width="250.4" height="2.8"/>
	<rect x="77" y="296.7" class="st2" width="250.4" height="2.8"/>
	<rect x="77" y="305.6" class="st2" width="250.4" height="2.8"/>
	<rect x="77" y="314.4" class="st2" width="250.4" height="2.8"/>
	<rect x="77" y="323.3" class="st2" width="250.4" height="2.8"/>
	<rect x="77" y="332.1" class="st2" width="250.4" height="2.8"/>
	<rect x="77" y="341" class="st2" width="250.4" height="2.8"/>
	<rect x="77" y="349.9" class="st2" width="250.4" height="2.8"/>
</g>
</svg>
